<svg xmlns="http://www.w3.org/2000/svg" width="6727" height="1374" viewBox="0 0 6727 1374" fill="none"><g clip-path="url(#clip0_2421_35)"><path d="M1576.21 0V342.878C1595.25 319.05 1609.79 291.776 1628.36 267.661C1736.5 127.467 1902.24 30.814 2078.51 6.7944C2290.29 -22.1057 2510 49.7618 2658.52 202.971L2483.5 377.328C2425.7 325.653 2359 283.164 2283.01 263.929C1901.09 167.181 1593.91 582.883 1801.47 918.392C1817.93 944.996 1838.03 966.049 1856.31 991.025C1656.3 1008.92 1452.66 993.896 1258.5 943.847V0H1576.3H1576.21Z" fill="white"></path><path d="M406.898 524.22C964.135 1099.83 1894.01 1222.32 2590.2 827.48C2600.25 819.251 2593.74 804.801 2584.17 799.537L2277.08 638.768C2266.55 628.146 2271.43 607.476 2286.55 604.509L2845.61 676.472C2854.99 677.429 2865.8 686.999 2865.9 696.664L2668.96 1270.26C2652.59 1274.19 2637.66 1268.06 2636.71 1250.26C2635.37 1228.16 2642.06 1192.27 2643.02 1168.83C2645.61 1100.88 2650.96 1031.89 2652.5 964.325C2652.88 946.047 2655.27 907.673 2652.3 891.979C2651.16 886.046 2647.71 881.549 2641.49 880.974C2572.59 919.54 2504.84 959.923 2433.35 993.704C1610.46 1381.94 576.471 1179.83 0 470.248L240.292 324.216C293.403 392.83 346.514 461.827 406.994 524.22H406.898Z" fill="white"></path><path d="M792.84 0V751.786C676.856 684.703 571.208 600.778 475.034 507.953V0H792.84Z" fill="white"></path><path d="M2592.49 978.298C2591.82 984.135 2589.43 989.398 2589.14 995.427C2586.27 1077.44 2583.21 1159.74 2579.19 1241.94C2516.32 1285.39 2448.28 1321.85 2374.59 1344.05C2162.82 1407.97 1944.73 1367.49 1765.01 1242.51L1766.54 1236.29C1988.08 1217.15 2205.31 1157.73 2408.95 1070.17L2592.49 978.393V978.298Z" fill="white"></path><path d="M792.84 1107.3V1358.98H475.034V956.29L653.219 1050.26C699.632 1069.5 744.705 1092.18 792.744 1107.3H792.84Z" fill="white"></path><path d="M1576.21 1248.83V1358.98H1258.4V1226.82C1363.28 1244.33 1469.98 1245.39 1576.21 1248.83Z" fill="white"></path><path d="M6085.96 204.983L6203.86 553.124L6305.49 210.15C6313.82 198.858 6380.9 207.184 6398.79 205.461L6498.41 558.483L6613.63 204.983H6726.17L6541.57 762.411L6453.53 761.454L6356.5 424.605C6342.62 423.074 6347.98 424.605 6345.68 432.452C6313.53 542.119 6284.53 652.839 6248.65 761.358C6229.22 759.827 6166.92 768.535 6155.53 756.86L5976.2 205.079H6086.06L6085.96 204.983Z" fill="white"></path><path d="M4824.41 657.528C4821.82 666.619 4760.19 717.912 4747.75 725.472C4513.11 869.303 4207.26 641.642 4310.9 379.723C4392.91 172.446 4680.86 126.895 4818.67 303.262L4746.7 376.182C4671.29 262.496 4490.62 272.448 4423.63 390.728C4336.84 544.033 4492.53 714.276 4656.65 655.805C4703.45 639.154 4733.97 618.006 4722.59 563.746H4604.69V472.739H4824.31V657.528H4824.41Z" fill="white"></path><path d="M3233.37 204.98V424.602H3452.99L3448.68 217.133C3446.67 212.827 3453.76 205.075 3455.67 205.075H3560.17V754.082C3560.17 754.656 3552.71 762.121 3552.13 762.121H3455.67C3443.71 762.121 3452.99 749.584 3452.99 748.723V515.704H3233.37V762.121H3126.19V204.98H3233.37Z" fill="white"></path><path d="M3896.45 195.699C3672.42 221.441 3559.79 490.729 3707.45 665.565C3854.53 839.731 4153.2 785.185 4217.5 564.893C4277.79 358.669 4105.54 171.679 3896.45 195.699ZM4114.63 531.687C4069.65 690.063 3854.43 716.858 3773.57 572.74C3708.88 457.522 3782.09 311.682 3912.52 297.519C4043.43 283.356 4151.19 402.88 4114.63 531.687Z" fill="white"></path><path d="M5626.82 195.793C5418.96 218.281 5298.2 453.693 5411.4 632.931C5535.43 829.394 5844.04 809.681 5934.19 594.174C6022.04 384.218 5847.2 171.964 5626.82 195.793ZM5561.93 637.812C5416.19 546.996 5468.44 320.293 5637.34 297.422C5733.23 284.407 5835.72 356.657 5847.01 454.554C5865.39 614.94 5699.16 723.364 5561.93 637.812Z" fill="white"></path><path d="M5243.27 554.751C5239.92 533.315 5198.77 520.492 5194.08 515.515C5185.66 506.711 5215.04 499.056 5222.69 493.314C5336.95 407.188 5298.96 224.409 5153.89 204.983C5078.67 194.839 4982.4 212.543 4904.79 204.983V753.989C4904.79 754.563 4912.26 762.028 4912.83 762.028H5011.97V545.085C5011.97 529.87 5094.46 544.511 5107.86 551.019C5168.82 580.493 5180.3 704.132 5204.89 762.028H5322.79L5243.46 554.751H5243.27ZM5145.37 442.882C5141.93 444.988 5112.83 456.663 5110.92 456.663H5011.78V285.271H5116.28C5124.8 285.271 5154.65 306.707 5161.73 314.746C5195.23 352.737 5189.58 416.087 5145.27 442.882H5145.37Z" fill="white"></path><path d="M4267.27 859.636C4243.05 884.421 4233.1 917.819 4192.34 907.771C4190.42 906.048 4212.34 861.837 4214.54 860.497C4222.29 855.616 4255.21 862.124 4267.27 859.636Z" fill="white"></path><path d="M3179.87 938.683V1029.69H3276.24V938.683H3329.83V1169.02H3276.24V1072.56H3179.87V1169.02H3126.29V938.683H3179.87Z" fill="white"></path><path d="M4781.53 1008.25C4768.04 1006.63 4749.19 1011.51 4736.84 1007.39C4725.84 1003.75 4726.22 986.146 4717.04 979.065C4693.88 961.265 4637.13 972.653 4648.52 1009.88C4658.76 1043.28 4772.92 1013.52 4785.65 1087.2C4805.08 1199.36 4584.88 1208.26 4588.71 1094C4598.95 1096.01 4637.32 1090.74 4641.72 1094.57C4643.16 1095.81 4644.02 1114.47 4652.73 1123.76C4677.04 1149.4 4748.42 1137.82 4732.54 1092.18C4721.53 1060.79 4603.06 1091.89 4595.31 1014.76C4584.69 909.972 4779.33 902.891 4781.63 1008.25H4781.53Z" fill="white"></path><path d="M4277.98 938.683V981.555H4160.18V1035.05H4267.27V1072.56H4160.18V1126.15H4277.98V1169.02H4106.59V938.683H4277.98Z" fill="white"></path><path d="M3983.34 938.683L3983.43 981.555H3913.77V1169.02H3860.18V981.555H3795.87V938.683H3983.34Z" fill="white"></path><path d="M4460.19 938.683H4406.6V1169.02H4460.19V938.683Z" fill="white"></path><path d="M3548.11 934.756C3421.41 952.651 3423.32 1159.55 3552.71 1173.71C3737.49 1194 3734.62 908.344 3548.11 934.756ZM3592.71 1129.11C3484.47 1155.24 3481.7 991.886 3553.38 977.34C3657.97 956.191 3657.97 1113.32 3592.71 1129.11Z" fill="white"></path></g><defs><clipPath id="clip0_2421_35"><rect width="6726.07" height="1374" fill="white"></rect></clipPath></defs></svg>